<?xml version="1.0" encoding="UTF-8"?>
<svg version="1.1" xmlns="http://www.w3.org/2000/svg" width="1024" height="1024">
<path d="M0 0 C337.92 0 675.84 0 1024 0 C1024 337.92 1024 675.84 1024 1024 C686.08 1024 348.16 1024 0 1024 C0 686.08 0 348.16 0 0 Z " fill="#111827" transform="translate(0,0)"/>
<path d="M0 0 C1.10202759 0.02924561 1.10202759 0.02924561 2.22631836 0.05908203 C20.26690056 0.88372607 37.06741852 16.23685576 51.50244141 26.05029297 C67.39606698 36.85125292 83.37305718 47.51754019 99.4375 58.0625 C114.90799552 68.22013687 130.28944634 78.49974691 145.61474609 88.875 C159.15642064 98.03939306 172.76971487 107.08738869 186.4375 116.0625 C203.10945964 127.01119707 219.69391994 138.08188443 236.20043945 149.27856445 C244.26445062 154.7455289 252.34176689 160.18085961 260.51953125 165.4765625 C261.91437504 166.38510537 263.30907362 167.29387124 264.70361328 168.20288086 C267.21040239 169.83656136 269.72898109 171.44901913 272.25732422 173.04907227 C283.23144337 180.19897416 290.00121781 187.7996336 293.4375 200.5625 C293.98244987 205.2839371 293.9826901 209.95655323 293.9521637 214.70553589 C293.95749881 216.10820402 293.96457002 217.51086641 293.97321075 218.91351807 C293.9917376 222.74022699 293.98556785 226.56654629 293.97505772 230.39327073 C293.96803716 234.53109436 293.98408527 238.66884023 293.99705505 242.80664062 C294.01865313 250.90221373 294.01857887 258.99764603 294.01042951 267.09323846 C294.0041192 273.67611649 294.00527598 280.25895359 294.01170158 286.84183121 C294.01260324 287.78021024 294.01350489 288.71858928 294.01443387 289.68540404 C294.01628515 291.59197267 294.01814772 293.49854129 294.02002143 295.4051099 C294.0365855 313.26808471 294.02789278 331.13098045 294.01103585 348.9939505 C293.9963424 365.31898393 294.01096477 381.64383325 294.03980602 397.96884297 C294.06923314 414.75108822 294.08016249 431.53324859 294.07062382 448.3155185 C294.06960131 450.21552474 294.0686067 452.11553099 294.0676403 454.01553726 C294.06716391 454.95026063 294.06668752 455.884984 294.0661967 456.84803232 C294.06403683 463.41792555 294.07381396 469.98773804 294.08841133 476.55761337 C294.10596966 484.57160889 294.10576732 492.58536983 294.08305968 500.59935628 C294.07194878 504.68412436 294.06868278 508.7684797 294.08736038 512.85322952 C294.10427244 516.60023321 294.09767133 520.34646761 294.07314359 524.09342243 C294.06601617 526.07458044 294.0832014 528.0557812 294.10155493 530.03686702 C293.97569826 542.22993605 290.64109201 552.5338143 282.05078125 561.3984375 C275.77263393 566.59738161 267.838583 570.69151284 259.59700012 570.68275452 C258.60000595 570.68412918 257.60301178 570.68550385 256.57580566 570.68692017 C255.48320435 570.68332489 254.39060303 570.67972961 253.26489258 570.67602539 C252.11353317 570.67617142 250.96217377 570.67631744 249.77592468 570.6764679 C245.96127453 570.67576991 242.1466729 570.66798279 238.33203125 570.66015625 C235.69073005 570.65829167 233.0494285 570.65686795 230.40812683 570.65586853 C224.16084171 570.65275948 217.91357408 570.64455182 211.66629666 570.63451904 C204.55391019 570.6233447 197.44152288 570.61784412 190.32912982 570.61282361 C175.69857752 570.60236886 161.06803901 570.58477764 146.4375 570.5625 C146.43511165 569.75172973 146.43272329 568.94095945 146.43026257 568.10562038 C146.37096926 548.32214776 146.29532825 528.53879549 146.20178509 508.75545406 C146.156936 499.18813623 146.11749659 489.62085471 146.09106445 480.0534668 C146.06799582 471.70860856 146.03449985 463.36386632 145.98879844 455.01910025 C145.96498508 450.60598254 145.94617882 446.19297886 145.93988609 441.77979851 C145.93378092 437.61418114 145.91358865 433.44885508 145.88322449 429.28334618 C145.87453034 427.76580082 145.87070346 426.24821725 145.87249184 424.73064804 C145.89653927 394.87179226 134.81392525 369.14974848 114.4375 347.5625 C113.40689453 346.4178125 113.40689453 346.4178125 112.35546875 345.25 C95.50988443 327.24803977 68.72270082 316.35782194 44.33682251 315.26904297 C38.54403114 315.0999718 32.75186711 315.09137971 26.95703125 315.09375 C24.81060087 315.08662572 22.66417234 315.07892353 20.51774597 315.07067871 C16.04066666 315.05731567 11.56376344 315.05562762 7.08666992 315.06152344 C1.40985688 315.06740572 -4.2660969 315.03684911 -9.94274426 314.99640656 C-14.37089925 314.9702843 -18.79885418 314.96767424 -23.22707558 314.97129822 C-25.31701118 314.96962921 -27.40695834 314.96020679 -29.49681664 314.94215393 C-61.69711979 314.69458217 -90.39155108 324.69725491 -113.92822266 346.92822266 C-131.28415754 364.28415754 -144.58626024 390.51599515 -144.72071838 415.31391907 C-144.72565636 415.97972667 -144.73059434 416.64553428 -144.73568195 417.33151788 C-144.75099745 419.55474974 -144.75940135 421.77795285 -144.76782227 424.0012207 C-144.77740547 425.59799958 -144.78741581 427.19477595 -144.79782104 428.79154968 C-144.82482822 433.12167791 -144.84586043 437.45181699 -144.86582303 441.78198266 C-144.88770843 446.30903612 -144.91508462 450.8360563 -144.94187927 455.36308289 C-144.99177162 463.93356223 -145.03672328 472.50406009 -145.07990164 481.0745756 C-145.12930357 490.8326899 -145.18421073 500.59077078 -145.23958123 510.34885275 C-145.35334819 530.42003737 -145.46019874 550.49125389 -145.5625 570.5625 C-160.6446597 570.63274264 -175.72680666 570.68556265 -190.80909538 570.71793652 C-197.81289022 570.73337129 -204.81658312 570.75439548 -211.8203125 570.78881836 C-218.58302904 570.82204068 -225.34563974 570.83936853 -232.10843277 570.84713173 C-234.68473092 570.85266211 -237.26102348 570.86346155 -239.83727646 570.87969017 C-243.45398075 570.90156075 -247.07025162 570.90446283 -250.68701172 570.90307617 C-252.27413719 570.91925491 -252.27413719 570.91925491 -253.89332581 570.9357605 C-265.17317666 570.88915871 -273.24214054 568.21083043 -281.5625 560.5625 C-282.41328125 559.79292969 -282.41328125 559.79292969 -283.28125 559.0078125 C-291.93897762 550.12922448 -293.30040356 538.01000609 -293.19068909 526.20346069 C-293.19574674 524.80176408 -293.2029849 523.40007396 -293.21218723 521.99839842 C-293.23096335 518.18365124 -293.21895985 514.36955279 -293.2014643 510.55482292 C-293.18801444 506.42661673 -293.2035544 502.29850075 -293.21528625 498.17030334 C-293.23360975 490.09835906 -293.22518647 482.02665777 -293.20719803 473.9547212 C-293.19314131 467.39236985 -293.18928582 460.83008423 -293.1926403 454.26771927 C-293.19311775 453.33180913 -293.19359519 452.39589899 -293.1940871 451.43162794 C-293.19511348 449.53004791 -293.19616884 447.62846789 -293.19725286 445.7268879 C-293.20580898 428.93441326 -293.1891793 412.14205555 -293.15942383 395.34960938 C-293.13057986 379.07123912 -293.12350868 362.79303724 -293.13891602 346.51464844 C-293.15569137 328.76671668 -293.15969948 311.01886475 -293.14220566 293.27093089 C-293.14036136 291.37717033 -293.13852663 289.48340977 -293.13670158 287.5896492 C-293.13578949 286.65799849 -293.1348774 285.72634779 -293.13393768 284.76646524 C-293.12834129 278.21416311 -293.13163099 271.66190007 -293.13824654 265.10960007 C-293.14599188 257.12159524 -293.13918367 249.13375592 -293.1140715 241.14578436 C-293.10160534 237.07346288 -293.09539479 233.00139868 -293.10661316 228.92906761 C-293.1167028 225.19589974 -293.10809657 221.4632434 -293.08503198 217.73013742 C-293.0774842 215.75158881 -293.08937909 213.77299493 -293.10213572 211.79447305 C-292.99809371 200.54281886 -290.17195381 190.13496585 -282.5625 181.5625 C-273.53937089 173.86123057 -263.2268003 167.61859411 -253.31494141 161.15014648 C-248.41054265 157.9484631 -243.51543612 154.73265361 -238.62109375 151.515625 C-237.61513153 150.85449707 -236.60916931 150.19336914 -235.57272339 149.51220703 C-225.34549044 142.77989514 -215.19974757 135.92924153 -205.0625 129.0625 C-189.71880923 118.67323748 -174.29145413 108.42087215 -158.80224609 98.25 C-145.15497291 89.28544894 -131.58367236 80.21603653 -118.0625 71.0625 C-101.59430382 59.91493422 -85.03773205 48.90976064 -68.41235352 37.99804688 C-59.861333 32.38394911 -51.32594362 26.75085827 -42.84765625 21.02734375 C-42.08735107 20.51526871 -41.3270459 20.00319366 -40.54370117 19.4756012 C-37.03019227 17.10918078 -33.52162548 14.73619572 -30.02294922 12.34790039 C-11.14607921 -0.44642431 -11.14607921 -0.44642431 0 0 Z " fill="#111827" transform="translate(511.5625,230.4375)"/>
<path d="M0 0 C1.1900061 0.3568689 1.1900061 0.3568689 2.40405273 0.72094727 C17.76185263 5.84636132 31.40063787 16.38126949 44.64038086 25.42529297 C49.34173382 28.63570065 54.05571677 31.82746028 58.76953125 35.01953125 C59.74076935 35.67756744 60.71200745 36.33560364 61.712677 37.01358032 C71.9143092 43.91425242 82.20275625 50.68071349 92.5 57.4375 C107.97095526 67.59442524 123.35195742 77.87475441 138.67724609 88.25 C152.21892193 97.41439393 165.83227054 106.46230272 179.5 115.4375 C195.96116947 126.24830736 212.32932006 137.18818054 228.63671875 148.22949219 C237.55817444 154.26783902 246.49637895 160.27778994 255.48046875 166.22265625 C256.81668022 167.10802315 256.81668022 167.10802315 258.17988586 168.01127625 C262.40017826 170.80724448 266.6239435 173.59763245 270.85473633 176.37768555 C299.92407287 195.56812452 320.52708093 219.12611476 328.04486179 253.7616396 C329.62967202 261.51680632 329.92393532 269.05376814 329.88768005 276.97001648 C329.89186528 278.42064235 329.89734924 279.87126493 329.90399987 281.32188159 C329.91831793 285.26279986 329.91425302 289.20350658 329.90683305 293.14443576 C329.90206938 297.41250758 329.91463942 301.6805357 329.92485046 305.94859314 C329.94198272 314.29326627 329.94288994 322.63786391 329.93763756 330.98255005 C329.93358348 337.77169264 329.93505407 344.56081306 329.94038582 351.34995461 C329.94113424 352.31907495 329.94188266 353.2881953 329.94265376 354.28668294 C329.94418537 356.25596931 329.94572372 358.22525567 329.94726873 360.19454203 C329.96097412 378.63286614 329.95557035 397.07114773 329.94408352 415.50947086 C329.93415764 432.34034968 329.94708417 449.17111847 329.97101771 466.00198033 C329.99546137 483.32339327 330.00500339 500.64475508 329.99836498 517.96618491 C329.99488387 527.67496014 329.99703098 537.38365085 330.01461601 547.09241295 C330.02940423 555.35896982 330.0298878 563.62538268 330.0125451 571.89193692 C330.00408603 576.10108787 330.00175906 580.3099823 330.01719666 584.51911926 C330.15718621 625.6072763 330.15718621 625.6072763 321.8125 643.8125 C321.46928711 644.58875732 321.12607422 645.36501465 320.77246094 646.16479492 C307.82144117 674.5616899 284.07797988 695.23846736 255.0078125 706.26171875 C242.41771477 710.32255363 230.11385079 711.23558818 216.96630859 711.2121582 C215.33546213 711.21651485 213.7046177 711.22170115 212.07377625 711.22764587 C207.67930404 711.24094013 203.28491834 711.24162565 198.89042997 711.23908257 C195.20999236 711.238007 191.52957183 711.2429108 187.8491379 711.247688 C179.16406049 711.25874859 170.47902635 711.25923912 161.79394531 711.25317383 C152.85519871 711.24712723 143.91660923 711.25947038 134.97788942 711.2807439 C127.27903094 711.29838806 119.58022238 711.30435709 111.88134444 711.30110615 C107.29359822 711.29929872 102.7059643 711.30187604 98.11823654 711.31582069 C93.8056074 711.32844152 89.4932229 711.32641494 85.18059731 711.31340981 C83.60448052 711.31105427 82.02834627 711.31374176 80.45224953 711.32203293 C67.15987822 711.38688198 57.50280109 710.13238254 47.5 700.9375 C46.9328125 700.42445313 46.365625 699.91140625 45.78125 699.3828125 C35.57721924 688.91847483 35.78715352 675.11087224 35.90405273 661.53637695 C35.90214537 659.60981917 35.89798242 657.68326252 35.89175415 655.75671387 C35.88300991 651.63267853 35.88962712 647.50906596 35.90841484 643.38506508 C35.93766426 636.8576095 35.92967185 630.33051289 35.91651917 623.80302429 C35.89591546 611.12856942 35.91142437 598.45429098 35.93199158 585.77984619 C35.9571841 569.63625352 35.96995289 553.49275867 35.94203526 537.34916276 C35.93210797 530.86635402 35.94214676 524.38398088 35.96794307 517.90121996 C35.98014721 513.86471887 35.97589595 509.8283526 35.96736526 505.79184723 C35.96683201 503.9270714 35.97311931 502.06227858 35.98690605 500.19755363 C36.08228427 486.63421756 34.87806415 476.46639709 25.5 465.9375 C17.35289407 458.21918911 7.01865232 455.6409652 -3.92871094 455.63110352 C-4.72990356 455.62278 -5.53109619 455.61445648 -6.35656738 455.60588074 C-8.98255397 455.58195669 -11.60829128 455.57303001 -14.234375 455.56640625 C-16.07749499 455.55742603 -17.92061429 455.54830396 -19.76373291 455.53904724 C-23.62017582 455.52260206 -27.47653237 455.5148654 -31.33300781 455.51196289 C-36.24642452 455.50658605 -41.15901647 455.46891551 -46.07220078 455.42321873 C-49.8780607 455.39330491 -53.68372548 455.38623623 -57.48969269 455.38523674 C-59.29960148 455.38106226 -61.10951237 455.36874101 -62.91930389 455.34771919 C-76.0907376 455.20690431 -87.11451281 456.58440228 -97.75390625 465.2109375 C-104.47873766 471.86054709 -108.80294077 480.57171309 -108.89010656 490.06564683 C-108.88184838 490.79999335 -108.87359021 491.53433988 -108.86508179 492.29093933 C-108.86820078 493.09306219 -108.87131978 493.89518505 -108.8745333 494.72161466 C-108.88143529 497.3890662 -108.86718658 500.05597233 -108.85302734 502.72338867 C-108.85385881 504.64433903 -108.85607706 506.56528921 -108.85957336 508.48623657 C-108.86451328 512.61407204 -108.86044453 516.74176517 -108.84955978 520.86958885 C-108.83316003 527.40581968 -108.84168357 533.9418732 -108.85440063 540.47810364 C-108.88448185 557.88981424 -108.88308838 575.30149272 -108.86414778 592.71321613 C-108.85179183 604.1556257 -108.85374069 615.59783362 -108.88253558 627.04022008 C-108.89771762 633.52807914 -108.89036264 640.01538888 -108.86582541 646.50321329 C-108.85570537 650.55302213 -108.86650078 654.60258296 -108.88294029 658.65236282 C-108.88637188 660.51909254 -108.88138125 662.38586142 -108.86697197 664.25253868 C-108.76157465 678.81745247 -110.21937153 690.7654523 -120.88671875 701.7734375 C-127.97848106 707.64613753 -136.01823949 711.0497077 -145.17330933 711.09140015 C-145.85525962 711.0957824 -146.53720991 711.10016465 -147.23982537 711.1046797 C-149.53081737 711.1180603 -151.82177089 711.12424529 -154.11279297 711.13037109 C-155.75401991 711.13827366 -157.39524512 711.1465427 -159.03646851 711.15515137 C-164.43835794 711.18138884 -169.84025511 711.19669675 -175.2421875 711.2109375 C-177.10741302 711.2162995 -178.97263849 711.22167702 -180.83786392 711.22706985 C-188.60992957 711.24871536 -196.38199316 711.26744277 -204.15408134 711.27869225 C-215.2519359 711.2948643 -226.34943655 711.32785734 -237.44715774 711.38509309 C-245.26828834 711.42403415 -253.08932535 711.44335419 -260.91055024 711.44861281 C-265.56988052 711.45223801 -270.22883355 711.46395013 -274.88805771 711.49671555 C-319.92865664 711.79803168 -319.92865664 711.79803168 -340.5625 701.1875 C-341.43189209 700.7555835 -342.30128418 700.32366699 -343.19702148 699.87866211 C-350.27575416 696.26363864 -356.47820177 692.15522647 -362.5 686.9375 C-363.50160156 686.09574219 -364.50320313 685.25398437 -365.53515625 684.38671875 C-386.28414402 666.51908008 -398.89774254 640.92885214 -402.5 613.9375 C-402.87078373 608.91294771 -402.90689751 603.92181282 -402.88095093 598.88516235 C-402.88441903 597.44462303 -402.88919123 596.00408637 -402.89513266 594.56355512 C-402.9075147 590.65523224 -402.90153155 586.74713257 -402.89217401 582.83880949 C-402.88533051 578.60420024 -402.89589085 574.36962692 -402.90411377 570.13502502 C-402.91739793 561.85866604 -402.914597 553.58238904 -402.90587585 545.30602695 C-402.89907775 538.57362355 -402.89819174 531.84124299 -402.9014473 525.10883713 C-402.901907 524.14760091 -402.90236669 523.18636468 -402.90284032 522.19600009 C-402.90379958 520.24273479 -402.90477223 518.2894695 -402.9057581 516.33620422 C-402.91429666 498.05387724 -402.90450247 479.77159552 -402.888357 461.48927598 C-402.87495951 445.83462487 -402.87728021 430.18004053 -402.89111328 414.52539062 C-402.90720367 396.30787222 -402.91346833 378.09039342 -402.90427649 359.8728689 C-402.90332093 357.92651074 -402.90237782 355.98015257 -402.9014473 354.0337944 C-402.90098447 353.07637254 -402.90052164 352.11895068 -402.90004479 351.13251603 C-402.89746494 344.41665891 -402.9018042 337.70082711 -402.90888596 330.98497391 C-402.91733989 322.78830283 -402.91493976 314.59171784 -402.89904372 306.3950565 C-402.89121237 302.22061798 -402.88798051 298.04632245 -402.89799118 293.8718853 C-402.98001159 256.55509894 -397.35268635 224.04237242 -370.0871582 196.49023438 C-362.29811018 188.87012279 -353.77022432 182.88024222 -344.6875 176.9375 C-343.23191768 175.9773264 -341.77685121 175.0163704 -340.32226562 174.0546875 C-337.26800287 172.03617925 -334.21162349 170.02093512 -331.15380859 168.0078125 C-324.33398986 163.51369801 -317.54346669 158.97569078 -310.75109863 154.44024658 C-306.98244762 151.92444059 -303.2118255 149.4115923 -299.44140625 146.8984375 C-297.94286172 145.89942812 -296.44432653 144.90040474 -294.94580078 143.90136719 C-286.13623047 138.02832031 -286.13623047 138.02832031 -283.97953796 136.5905304 C-282.55913171 135.64358952 -281.13873168 134.69663932 -279.71833801 133.74967957 C-276.23790927 131.4293349 -272.75737448 129.10914963 -269.27661133 126.78930664 C-263.17683387 122.72374208 -257.07807524 118.6567005 -250.984375 114.58203125 C-240.86204748 107.81730783 -230.72448732 101.07786176 -220.55078125 94.390625 C-201.96526024 82.17233359 -183.41922761 69.90547324 -165 57.4375 C-149.95909085 47.25714485 -134.85590841 37.17698406 -119.6875 27.1875 C-118.76710938 26.58107666 -117.84671875 25.97465332 -116.8984375 25.34985352 C-111.84478222 22.02155911 -106.7850357 18.7028313 -101.71920776 15.39309692 C-99.62909388 14.02217376 -97.54717031 12.63966986 -95.46704102 11.25366211 C-89.21546145 7.11506832 -83.15385738 3.49260246 -76.0625 1 C-74.95745117 0.58524414 -74.95745117 0.58524414 -73.83007812 0.16210938 C-49.34195705 -8.89871271 -24.57590103 -7.7031629 0 0 Z M-78.56494141 87.27441406 C-83.27400335 90.51997594 -88.00595452 93.73195768 -92.734375 96.94921875 C-93.70870483 97.61343842 -94.68303467 98.27765808 -95.68688965 98.96200562 C-105.8823281 105.90265572 -116.18603254 112.67484891 -126.5 119.4375 C-141.07071757 129.00145175 -155.56730883 138.66654439 -170 148.4375 C-184.4327379 158.20848725 -198.93117138 167.87062083 -213.5 177.4375 C-230.02797531 188.29200184 -246.4608309 199.27874848 -262.83666992 210.36132812 C-271.53300055 216.24538205 -280.2403955 222.11074947 -288.98828125 227.91796875 C-290.24365189 228.7518084 -290.24365189 228.7518084 -291.52438354 229.60249329 C-295.46682262 232.22011192 -299.41198296 234.83348725 -303.36132812 237.44067383 C-304.75788482 238.36659015 -306.1543732 239.29260952 -307.55078125 240.21875 C-308.17060379 240.62574631 -308.79042633 241.03274261 -309.42903137 241.45207214 C-314.99307697 245.15056413 -320.26030403 248.8123069 -323.6875 254.6875 C-324.38939453 255.85539062 -324.38939453 255.85539062 -325.10546875 257.046875 C-329.27562924 265.69090514 -329.93410478 273.23603285 -329.89440918 282.80206299 C-329.89930443 284.19887778 -329.90549715 285.59568851 -329.91286707 286.99249244 C-329.92920973 290.81225529 -329.9269603 294.63181098 -329.9214921 298.4515965 C-329.91881484 302.5785404 -329.9333668 306.70542996 -329.94558716 310.83235168 C-329.96661465 318.91079516 -329.97118352 326.98916682 -329.96939927 335.06763443 C-329.96809019 341.63673004 -329.97190325 348.20580331 -329.97932434 354.77489471 C-329.98142361 356.66918111 -329.98352121 358.5634675 -329.98561716 360.4577539 C-329.98666069 361.40068556 -329.98770422 362.34361722 -329.98877937 363.31512257 C-330.00767124 381.13849026 -330.00663489 398.96181677 -329.99981004 416.78519031 C-329.99423648 433.07478044 -330.01505389 449.36421319 -330.04817051 465.65376654 C-330.08194068 482.3952615 -330.09707162 499.13668114 -330.09245348 515.87821078 C-330.09021201 525.27109164 -330.0954046 534.66382709 -330.12034607 544.05667877 C-330.14140231 552.05424446 -330.14490851 560.05158502 -330.12604648 568.04916009 C-330.11691484 572.12582034 -330.11566594 576.20206133 -330.13640213 580.27868843 C-330.15521314 584.01836006 -330.15049712 587.75727205 -330.12785631 591.49691567 C-330.1217408 593.47420091 -330.13998124 595.45151653 -330.15939283 597.42871594 C-330.03763931 609.81725254 -326.5493972 619.94920749 -317.828125 628.84375 C-308.73606595 637.02050109 -299.7552697 638.24490026 -287.8515625 638.16455078 C-286.70922653 638.16484283 -285.56689056 638.16513489 -284.38993835 638.16543579 C-280.63488015 638.1640486 -276.88002331 638.14851593 -273.125 638.1328125 C-270.51326608 638.12908021 -267.90153075 638.12623426 -265.28979492 638.12423706 C-259.13119028 638.1180392 -252.97265726 638.1016515 -246.81408405 638.08153808 C-239.79832267 638.05912613 -232.78255773 638.04817238 -225.76676941 638.03814721 C-211.34447612 638.01728363 -196.92223906 637.98214084 -182.5 637.9375 C-182.49853344 637.11826585 -182.49706688 636.2990317 -182.49555588 635.45497227 C-182.4583861 615.45380523 -182.39923749 595.45280628 -182.31609726 575.45177555 C-182.27641137 565.77912711 -182.24396607 556.10655879 -182.22900391 546.43383789 C-182.21593292 537.99591402 -182.18883062 529.55816724 -182.14538693 521.12034315 C-182.12289374 516.65906036 -182.10708195 512.19799498 -182.10811615 507.73665047 C-182.10887003 503.52335432 -182.09063249 499.31053655 -182.05883217 495.09736443 C-182.05042752 493.56453515 -182.04851763 492.03165161 -182.05419731 490.49880981 C-182.13753343 464.51350346 -172.7490794 441.14692851 -156.5 420.9375 C-155.63761719 419.84308594 -155.63761719 419.84308594 -154.7578125 418.7265625 C-144.17298363 405.9133486 -128.97991423 396.1855111 -113.625 390.0625 C-112.97974365 389.80065918 -112.3344873 389.53881836 -111.66967773 389.26904297 C-95.87496718 383.36614143 -80.33188576 382.34182252 -63.6484375 382.44140625 C-61.49288891 382.44125075 -59.33734005 382.43975339 -57.18179321 382.43699646 C-52.69561179 382.43562285 -48.20975411 382.44799686 -43.72363281 382.47094727 C-38.01741493 382.49936276 -32.31173218 382.49657088 -26.60547447 382.48385715 C-22.16465809 382.47685311 -17.72396215 382.48474227 -13.28316116 382.49711418 C-11.18074635 382.50158048 -9.07831839 382.50200849 -6.97590256 382.49804878 C9.1339104 382.48189823 24.04694791 383.58940092 39.1875 389.625 C40.5182959 390.14501587 40.5182959 390.14501587 41.87597656 390.67553711 C49.31318294 393.67600452 55.93987888 397.29232753 62.5 401.9375 C63.26828125 402.46601562 64.0365625 402.99453125 64.828125 403.5390625 C88.63696664 420.92465549 103.35697906 447.03763484 108.21262765 475.87292027 C109.06319804 481.98370432 108.93962794 488.17158227 108.93237305 494.32788086 C108.94141673 495.90643568 108.9517502 497.48498355 108.96325684 499.06352234 C108.99054753 503.29805543 109.0000728 507.53245432 109.00611091 511.76706386 C109.01556828 516.21134431 109.04177687 520.65552733 109.06611633 525.0997467 C109.10958426 533.49281183 109.13825171 541.88585783 109.16143972 550.27900082 C109.18859779 559.84391508 109.23250222 569.40873034 109.27772844 578.97357357 C109.37029205 598.62816226 109.44210146 618.28278059 109.5 637.9375 C124.67793062 638.05466132 139.8558403 638.14264794 155.03412247 638.19656086 C162.08279856 638.22226678 169.13119256 638.25726981 176.1796875 638.31469727 C182.98781742 638.37013958 189.79565471 638.3989614 196.60399628 638.41188622 C199.19541777 638.42109156 201.78682411 638.43906724 204.37812042 638.46615028 C208.0209808 638.50269356 211.66264853 638.50743453 215.30566406 638.50512695 C216.89602982 638.53209152 216.89602982 638.53209152 218.51852417 638.55960083 C229.92995195 638.48189423 239.19689817 634.2786695 247.37109375 626.40625 C253.19243611 619.65562914 256.74501245 610.83364558 256.75726891 601.92003345 C256.7637178 600.73051636 256.77016669 599.54099926 256.776811 598.31543618 C256.7737138 597.01749413 256.7706166 595.71955207 256.76742554 594.38227844 C256.77116359 592.98250511 256.77576574 591.58273387 256.78115618 590.18296593 C256.79338269 586.34119969 256.79312613 582.49952054 256.79076743 578.65773928 C256.79035917 574.51238771 256.80139939 570.36706403 256.81088257 566.22172546 C256.82749223 558.10144225 256.83299212 549.98118807 256.83410732 541.86088929 C256.83505793 535.25881465 256.83916885 528.65674958 256.84550858 522.05467796 C256.86312183 503.33108463 256.87234746 484.60751422 256.87084763 465.88391254 C256.87076772 464.87461642 256.8706878 463.8653203 256.87060547 462.82543945 C256.87052371 461.81490885 256.87044195 460.80437826 256.87035771 459.76322552 C256.86954505 443.39128711 256.88867736 427.01944077 256.9168822 410.64752898 C256.94562307 393.83156482 256.9594218 377.01564553 256.95769465 360.19965619 C256.95703111 350.7609822 256.96250763 341.32240467 256.98405075 331.88375282 C257.00227849 323.84619472 257.0065969 315.8087768 256.9930319 307.77120695 C256.98650994 303.67259005 256.9863569 299.57424198 257.0037384 295.47565079 C257.01950892 291.71817508 257.01656542 287.96118044 256.99917014 284.20371618 C256.9946668 282.21188994 257.0097264 280.22004853 257.02564943 278.22828084 C256.94209642 267.303991 254.54668166 258.02568335 247.32617188 249.60009766 C240.69386369 243.35165665 232.85082342 238.59860832 225.25 233.625 C223.32849858 232.35035692 221.40794332 231.07428652 219.48828125 229.796875 C214.49101291 226.47760642 209.48096146 223.17824014 204.46606445 219.88568115 C199.77006163 216.80123564 195.08080231 213.70657434 190.390625 210.61328125 C184.92605285 207.01067546 179.45996265 203.41042622 173.98925781 199.81713867 C160.36048174 190.8600636 146.82748571 181.7677256 133.32275391 172.625 C119.78108245 163.46060903 106.16790396 154.4124265 92.5 145.4375 C77.93098312 135.87086447 63.4336447 126.2071619 49 116.4375 C34.79343814 106.82670092 20.55163853 97.27156903 6.24316406 87.81298828 C4.30968853 86.5344204 2.37721116 85.25434163 0.44580078 83.97265625 C-2.23492902 82.19458762 -4.9195698 80.42259134 -7.60546875 78.65234375 C-8.38999924 78.13079208 -9.17452972 77.60924042 -9.98283386 77.07188416 C-18.63632492 71.39178668 -25.77879487 67.78657388 -36.25 67.375 C-36.90871094 67.31248047 -37.56742187 67.24996094 -38.24609375 67.18554688 C-52.60551945 66.74759766 -67.37662997 79.56137105 -78.56494141 87.27441406 Z " fill="#F3F5FB" transform="translate(548.5,163.0625)"/>
</svg>
